<?xml version="1.0" encoding="utf-8"?>
<!-- Generator: Adobe Illustrator 25.1.0, SVG Export Plug-In . SVG Version: 6.00 Build 0)  -->
<!DOCTYPE svg PUBLIC "-//W3C//DTD SVG 1.1//EN" "http://www.w3.org/Graphics/SVG/1.1/DTD/svg11.dtd" [
	<!ENTITY ns_extend "http://ns.adobe.com/Extensibility/1.0/">
	<!ENTITY ns_ai "http://ns.adobe.com/AdobeIllustrator/10.0/">
	<!ENTITY ns_graphs "http://ns.adobe.com/Graphs/1.0/">
	<!ENTITY ns_vars "http://ns.adobe.com/Variables/1.0/">
	<!ENTITY ns_imrep "http://ns.adobe.com/ImageReplacement/1.0/">
	<!ENTITY ns_sfw "http://ns.adobe.com/SaveForWeb/1.0/">
	<!ENTITY ns_custom "http://ns.adobe.com/GenericCustomNamespace/1.0/">
	<!ENTITY ns_adobe_xpath "http://ns.adobe.com/XPath/1.0/">
]>
<svg version="1.1" xmlns:x="&ns_extend;" xmlns:i="&ns_ai;" xmlns:graph="&ns_graphs;"
	 xmlns="http://www.w3.org/2000/svg" xmlns:xlink="http://www.w3.org/1999/xlink" x="0px" y="0px" viewBox="0 0 981.47 944.49"
	 style="enable-background:new 0 0 981.47 944.49;" xml:space="preserve">
<style type="text/css">
	.st0{fill:#DBDADB;}
	.st1{fill:#7C7C7C;enable-background:new    ;}
	.st2{fill:#FFFFFF;}
	.st3{fill:#F2F2F2;}
	.st4{fill:#B53131;}
	.st5{fill:#CE3636;}
	.st6{fill:#3075B2;}
	.st7{fill:#3A3A3A;}
	.st8{fill:none;stroke:#A6B8BF;stroke-width:6;stroke-miterlimit:10;}
	.st9{fill:none;stroke:#A6B8BF;stroke-width:2;stroke-miterlimit:10;}
	.st10{fill:none;stroke:#1D1D1B;stroke-width:10;stroke-miterlimit:10;}
	.st11{fill:#515151;}
	.st12{fill:#CCDCE6;}
	.st13{fill:#3580CF;}
	.st14{fill:#2A2C3C;}
</style>
<metadata>
	<sfw  xmlns="&ns_sfw;">
		<slices></slices>
		<sliceSourceBounds  bottomLeftOrigin="true" height="893.02" width="981.18" x="51.47" y="-845.92"></sliceSourceBounds>
	</sfw>
</metadata>
<g id="weg">
	<g>
		<rect x="0.36" y="645.59" class="st0" width="980.81" height="298.83"/>
		<rect x="-0.01" y="667.1" class="st1" width="981.18" height="149.04"/>
		<g>
			<rect x="39.11" y="729.42" class="st2" width="115.58" height="8.52"/>
			<rect x="233.16" y="729.42" class="st2" width="115.58" height="8.52"/>
			<rect x="426.4" y="729.42" class="st2" width="115.58" height="8.52"/>
			<rect x="621.4" y="729.42" class="st2" width="115.58" height="8.52"/>
			<rect x="816.4" y="729.42" class="st2" width="115.58" height="8.52"/>
		</g>
	</g>
</g>
<g id="nek">
	<path class="st3" d="M491.71,159.08c-0.05,1.02-4.06,29.79-14.33,31.04c-10.27,1.24,36.79,22.77,36.79,22.77s-1.66-8.59-0.09-13.29
		c1.57-4.7,19.65-28.07,19.65-28.07L491.71,159.08z"/>
</g>
<g id="tshirt-en-armen">
	<path class="st3" d="M644.39,401.48c0.89,0,63.16-3.28,54.52,17.58s-68.53,5.07-68.53,5.07L644.39,401.48z"/>
	<polygon class="st4" points="611.71,417.56 631.48,427.12 650.6,399.39 631.8,391.74 	"/>
	<path class="st4" d="M500.76,227.83c0,0,135.93,148.38,121.2,154.05s-116.1-96.85-116.1-96.85L500.76,227.83z"/>
	<path class="st5" d="M641.19,393.66c0,0-66.16-44.98-112.03-106.97s-34.71-70.05-63.23-68.19c-28.51,1.86-27.89,27.89-27.89,27.89
		s132.42,171.18,177.93,172.16L641.19,393.66z"/>
	<path class="st5" d="M478.01,178.09c2.3-0.38,41.18,28.43,41.18,28.43l-1.82,9.84l-2.92,36.44c0,0-8.75,74.71-94.39,110.43
		l-72.55-22.33c0,0,90.05-139.12,95.88-142.03c5.83-2.92,33.89-16.4,33.89-16.4S475.82,178.45,478.01,178.09z"/>
	<circle cx="686.56" cy="420.58" r="11.87"/>
</g>
<g id="rechter-voet">
	<g>
		<polygon class="st2" points="471.34,578.51 463.87,607.86 491.08,608.39 494.02,583.58 		"/>
		<g>
			<path class="st5" d="M463.79,595.76c0,0,14.17,15.58,21.47,9.6c7.3-5.98,9.29-6.74,9.29-6.74s49.95,9.85,45.19,24.63l-2.26,3.88
				L460,623.59c0,0-4.51-7.5-3.16-13.76S458.32,600.32,463.79,595.76z"/>
			<g>
				<path class="st2" d="M501.37,607.64c1.1,0.62,2.45-3.98,3.13-6.68c-0.79-0.21-1.54-0.4-2.26-0.58
					C501.4,603.1,500.37,607.08,501.37,607.64z"/>
				<path class="st2" d="M508.17,608.78c1.01,0.57,2.22-3.24,2.95-5.96c-0.77-0.23-1.53-0.45-2.27-0.67
					C508.05,604.82,507.24,608.26,508.17,608.78z"/>
				<path class="st2" d="M513.6,609.91c0.94,0.53,2.06-2.75,2.79-5.4c-0.76-0.26-1.51-0.51-2.26-0.75
					C513.4,606.34,512.73,609.42,513.6,609.91z"/>
			</g>
			<path class="st2" d="M460.51,617.51c0,0-6.5,3.17-2.96,8.36c1.69,2.38,2.58,2.92,8.68,3.81c6.1,0.89,68.54,2.53,70.71,2.58
				c2.17,0.05,6.29-4.75,0.92-8.85C532.49,619.31,460.51,617.51,460.51,617.51z"/>
		</g>
	</g>
</g>
<g id="rechter-been-onder">
	<path class="st6" d="M469.55,586.88c0,0,11.34-146.92,27.27-148.38c15.93-1.46,37.17,11.47,24.39,53.18
		c-12.78,41.71-27.03,100.97-27.03,100.97L469.55,586.88z"/>
</g>
<g id="rechter-been-boven">
	<path class="st6" d="M374.74,348.64c-11.49,5.67-13.89,21.02-4.68,29.92c40.18,38.84,132.27,124.37,146.79,107.04
		c22.27-25.48-3.2-55.78-79.64-104.54l-43.55-30.92C388.12,346.21,380.85,345.63,374.74,348.64L374.74,348.64z"/>
</g>
<g id="pedaal-rechts">
	<path class="st7" d="M511.41,637.57l-64.1,20.44c-4.35,1.69-6.48,6.75-4.73,11.25l0,0c1.75,4.5,6.73,6.81,11.08,5.12l57.58-22.34
		c4.35-1.69,7.34-4.04,5.59-8.55l-0.86-2.71C514.23,636.29,515.76,635.89,511.41,637.57z"/>
</g>
<g id="pedaal-einde-rechts">
	<path class="st7" d="M488.86,619.81L488.86,619.81c2.44-2.75,6.68-3.01,9.43-0.57l35.74,31.66c2.75,2.44,3.01,6.68,0.57,9.43l0,0
		c-2.44,2.75-6.68,3.01-9.43,0.57l-35.74-31.66C486.68,626.8,486.42,622.56,488.86,619.81z"/>
</g>
<g id="rechter-wiel">
	<circle class="st8" cx="695.29" cy="650.4" r="105.8"/>
	<g>
		<line class="st9" x1="698.13" y1="540.31" x2="698.13" y2="761.68"/>
		<line class="st9" x1="592.39" y1="618.28" x2="803.88" y2="683.7"/>
		<line class="st9" x1="635.64" y1="742.35" x2="760.63" y2="559.64"/>
		<line class="st9" x1="766.94" y1="737.7" x2="629.33" y2="564.29"/>
		<line class="st9" x1="801.3" y1="610.89" x2="594.97" y2="691.1"/>
		<line class="st9" x1="610.26" y1="583.69" x2="786.01" y2="718.3"/>
		<line class="st9" x1="731.87" y1="545.57" x2="664.4" y2="756.41"/>
		<line class="st9" x1="787.92" y1="586.27" x2="608.35" y2="715.72"/>
		<line class="st9" x1="662.48" y1="546.21" x2="733.78" y2="755.78"/>
		<line class="st9" x1="587.45" y1="650.99" x2="808.82" y2="651"/>
	</g>
	<circle class="st10" cx="695.29" cy="650.4" r="112.92"/>
</g>
<g id="linker-wiel">
	<circle class="st8" cx="268.29" cy="650.4" r="105.8"/>
	<g>
		<line class="st9" x1="271.13" y1="540.31" x2="271.13" y2="761.68"/>
		<line class="st9" x1="165.39" y1="618.28" x2="376.88" y2="683.7"/>
		<line class="st9" x1="208.64" y1="742.35" x2="333.63" y2="559.64"/>
		<line class="st9" x1="339.94" y1="737.7" x2="202.33" y2="564.29"/>
		<line class="st9" x1="374.3" y1="610.89" x2="167.97" y2="691.1"/>
		<line class="st9" x1="183.26" y1="583.69" x2="359.01" y2="718.3"/>
		<line class="st9" x1="304.87" y1="545.57" x2="237.4" y2="756.41"/>
		<line class="st9" x1="360.92" y1="586.27" x2="181.35" y2="715.72"/>
		<line class="st9" x1="235.48" y1="546.21" x2="306.78" y2="755.78"/>
		<line class="st9" x1="160.45" y1="650.99" x2="381.82" y2="651"/>
	</g>
	<circle class="st10" cx="268.29" cy="650.4" r="112.92"/>
</g>
<g id="fiets">
	<path d="M677.88,425.48l-12.31,14.83c0,0-15.95,10.36-7.56,12.87s25.47-1.4,27.99-5.32c2.52-3.92,16.23-20.99,10.08-25.47
		S677.88,425.48,677.88,425.48z"/>
	<g>
		<path d="M628.33,497.05c0,0,1.9-42.34,8.85-48.02s29.07-22.75,29.07-22.75l-33.49-1.26c0,0-30.74,44.12-47.17,49.18
			c-16.43,5.05-210.64,17.8-210.64,17.8l-20.22-49.92c0,0,22.75,3.16,27.17,2.53c4.42-0.63,37.28-12.01,10.11-20.85
			s-78.35-32.23-78.98-25.27c-0.58,6.42,21.57,44.69,22.24,44.64c3.35-0.25,6.04,3.33,6.04,3.33s23.48,65.06,29.64,79.68
			c6.16,14.62-0.72,17.27-0.72,17.27l-96.85,86.93l9.6,8.53l95.42-91.16l34.12,95.42l9.06,30.39l-146.07-25.59l0.53,11.2
			l147.67,29.85c0,0,23.46-6.93,49.58-13.86S596.43,540.24,604.37,532.7c7.94-7.54,13.22-4.06,13.22-4.06l72.93,120.12
			c1.48,2.44,3.59,4.44,6.1,5.79l0.15,0.08c2.67,1.44,5.94-0.38,6.12-3.41l0,0L628.33,497.05z M594.24,504.92
			c-11.18,15.51-133.48,159.46-133.48,159.46l-22.12-16l-16.49-18.27c0,0-45.82-125.19-42.93-126.99l197.7-11.18
			C576.93,491.93,605.43,489.41,594.24,504.92z"/>
	</g>
	<path class="st7" d="M273.45,630.32c0,0-9.37,4-12.23,14.22c-1.08,3.86,5.04,13.7,14.82,14.58c9.77,0.88,4.15-5.92,4.15-5.92
		l-4.69-5.28c0,0-1.26-1.38-1.35-2.95c-0.09-1.54,0.92-3.25,8.81-6.11"/>
	<circle cx="444.18" cy="665.9" r="41.72"/>
	<circle class="st11" cx="444.18" cy="665.9" r="24.3"/>
</g>
<g id="pedaal-links">
	<path class="st7" d="M382.96,689.42l65.85-13.82c4.5-1.24,7.13-6.06,5.85-10.72l0,0c-1.28-4.66-6.01-7.46-10.5-6.22l-59.55,16.37
		c-4.5,1.24-7.71,3.28-6.43,7.93l0.58,2.78C380.03,690.4,378.46,690.66,382.96,689.42z"/>
</g>
<g id="pedaal-einde-links">
	<path class="st7" d="M403.58,709.39L403.58,709.39c-2.7,2.49-6.95,2.31-9.44-0.39l-32.33-35.13c-2.49-2.7-2.31-6.95,0.39-9.44l0,0
		c2.7-2.49,6.95-2.31,9.44,0.39l32.33,35.13C406.46,702.65,406.29,706.9,403.58,709.39z"/>
</g>
<g id="linker-voet">
	<g>
		<polyline class="st12" points="370.4,604.99 344.52,644.75 363.28,677.38 389.9,613.99 370.78,603.49 		"/>
		<path class="st5" d="M349.54,638.22c0,0-2.44,26.81,9.51,28.52c11.94,1.71,14.38,2.92,14.38,2.92s33.88,55.57,15.84,63.85
			l-5.61,1.22l-63.61-76.04c0,0,3.17-10.72,10.24-14.87C337.35,639.68,340.52,637,349.54,638.22z"/>
		<path class="st2" d="M370.82,683.88c0.37,1.57,5.86-1.13,9-2.82c-0.48-0.92-0.96-1.8-1.41-2.63
			C375.12,679.98,370.49,682.45,370.82,683.88z"/>
		<path class="st2" d="M375.62,691.27c0.34,1.44,4.98-0.71,8.16-2.38c-0.45-0.92-0.89-1.83-1.33-2.71
			C379.25,687.74,375.31,689.95,375.62,691.27z"/>
		<path class="st2" d="M379.25,697.36c0.32,1.34,4.37-0.44,7.5-2.04c-0.41-0.93-0.83-1.86-1.25-2.77
			C382.43,694.09,378.96,696.12,379.25,697.36z"/>
		<path class="st2" d="M326.21,653.92c0,0-8.6-3.39-10.43,4.43c-0.78,3.65-0.52,4.95,3.91,11.47s56.84,66.75,58.67,68.84
			c1.83,2.09,9.91,1.83,9.13-6.78C386.7,723.27,326.21,653.92,326.21,653.92z"/>
	</g>
</g>
<g id="linker-been-onder">
	<path class="st13" d="M363.48,614.52c0,0,69.38-130,84.56-124.94c15.18,5.06,29.43,25.43,0.98,58.5s-65.3,81.62-65.3,81.62
		L363.48,614.52z"/>
</g>
<g id="linker-been-boven">
	<path class="st13" d="M370.99,358.81c-12.78,0.89-20.83,14.17-15.69,25.91c22.43,51.19,75.14,165.28,95.15,154.77
		c30.28-15.11,18.22-52.81-33.97-126.95l-28.54-45.14C384.29,361.63,377.79,358.34,370.99,358.81L370.99,358.81z"/>
</g>
<g id="heup">
	<path class="st13" d="M424.08,361.82l-68.07-34.85c0,0-68.48,79.73,10.17,105.78c10.62,4.34,18.34,10.13,22.68,5.79
		S426.01,391.26,424.08,361.82z"/>
</g>
<g id="gezicht">
	<circle class="st3" cx="523.87" cy="139.93" r="41.19"/>
	<path d="M489.15,93.99c2.85,20.54,21.81,34.89,42.35,32.04c20.54-2.85,68.86-12.52,66.02-33.06s-55.78-44.17-76.32-41.32
		C500.65,54.49,486.31,73.45,489.15,93.99z"/>
	<circle cx="494.43" cy="101.68" r="30.04"/>
	<path d="M495.62,128.47c1.45,10.5-5.5,30.28-16,31.74c-10.5,1.45-20.57-15.97-22.02-26.47c-1.45-10.5,5.88-20.19,16.38-21.64
		C484.47,110.64,494.16,117.98,495.62,128.47z"/>
	<circle class="st3" cx="491.62" cy="136.27" r="11.31"/>
	<rect x="501.85" y="122.18" width="7.21" height="26.25"/>
	<circle class="st14" cx="553.22" cy="132.25" r="2.71"/>
</g>
</svg>
