<?xml version="1.0" encoding="utf-8"?>
<!-- Generator: Adobe Illustrator 25.1.0, SVG Export Plug-In . SVG Version: 6.00 Build 0)  -->
<!DOCTYPE svg PUBLIC "-//W3C//DTD SVG 1.1//EN" "http://www.w3.org/Graphics/SVG/1.1/DTD/svg11.dtd" [
	<!ENTITY ns_extend "http://ns.adobe.com/Extensibility/1.0/">
	<!ENTITY ns_ai "http://ns.adobe.com/AdobeIllustrator/10.0/">
	<!ENTITY ns_graphs "http://ns.adobe.com/Graphs/1.0/">
	<!ENTITY ns_vars "http://ns.adobe.com/Variables/1.0/">
	<!ENTITY ns_imrep "http://ns.adobe.com/ImageReplacement/1.0/">
	<!ENTITY ns_sfw "http://ns.adobe.com/SaveForWeb/1.0/">
	<!ENTITY ns_custom "http://ns.adobe.com/GenericCustomNamespace/1.0/">
	<!ENTITY ns_adobe_xpath "http://ns.adobe.com/XPath/1.0/">
]>
<svg version="1.1" xmlns:x="&ns_extend;" xmlns:i="&ns_ai;" xmlns:graph="&ns_graphs;"
	 xmlns="http://www.w3.org/2000/svg" xmlns:xlink="http://www.w3.org/1999/xlink" x="0px" y="0px" viewBox="0 0 1078.96 892.22"
	 style="enable-background:new 0 0 1078.96 892.22;" xml:space="preserve">
<style type="text/css">
	.st0{fill:#C3CCD0;}
	.st1{fill:#A5B8BF;}
	.st2{fill:#E1E4E5;}
	.st3{fill:#DADADA;}
	.st4{fill:#C8DEE5;}
	.st5{fill:#B3BABC;}
	.st6{fill:#96A8B0;}
	.st7{fill:#FFFFFF;}
	.st8{fill:#A8ADAF;}
	.st9{fill:#C6C6C6;}
	.st10{fill:none;stroke:#A6B8BF;stroke-width:6;stroke-miterlimit:10;}
	.st11{fill:none;stroke:#A6B8BF;stroke-width:2;stroke-miterlimit:10;}
	.st12{fill:none;stroke:#E1E4E5;stroke-width:10;stroke-miterlimit:10;}
	.st13{fill:#6B787C;}
</style>
<metadata>
	<sfw  xmlns="&ns_sfw;">
		<slices></slices>
		<sliceSourceBounds  bottomLeftOrigin="true" height="715.92" width="668.23" x="25.7" y="-639.43"></sliceSourceBounds>
	</sfw>
</metadata>
<g id="nek">
	<path class="st0" d="M495.34,191.63c-0.05,1.02-4.06,29.79-14.33,31.04c-10.27,1.24,36.79,22.77,36.79,22.77s-1.66-8.59-0.09-13.29
		c1.57-4.7,19.65-28.07,19.65-28.07L495.34,191.63z"/>
</g>
<g id="tshirt-en-armen">
	<path class="st0" d="M648.02,434.02c0.89,0,63.16-3.28,54.52,17.58c-8.64,20.86-68.53,5.07-68.53,5.07L648.02,434.02z"/>
	<polygon class="st1" points="615.35,450.1 635.11,459.66 654.24,431.93 635.43,424.28 	"/>
	<path class="st1" d="M504.4,260.38c0,0,135.93,148.38,121.2,154.05s-116.1-96.85-116.1-96.85L504.4,260.38z"/>
	<path class="st2" d="M644.83,426.21c0,0-66.16-44.98-112.03-106.97s-34.71-70.05-63.23-68.19c-28.51,1.86-27.89,27.89-27.89,27.89
		S574.09,450.12,619.61,451.1L644.83,426.21z"/>
	<path class="st3" d="M481.64,210.63c2.3-0.38,41.18,28.43,41.18,28.43L521,248.9l-2.92,36.44c0,0-8.75,74.71-94.39,110.43
		l-72.55-22.33c0,0,90.05-139.12,95.88-142.03c5.83-2.92,33.89-16.4,33.89-16.4S479.46,211,481.64,210.63z"/>
	<circle class="st4" cx="690.19" cy="453.13" r="11.87"/>
</g>
<g id="rechter-voet">
	<g>
		<polygon class="st5" points="474.97,611.05 467.5,640.41 494.72,640.94 497.65,616.12 		"/>
		<g>
			<path class="st6" d="M467.42,628.31c0,0,14.17,15.58,21.47,9.6c7.3-5.98,9.29-6.74,9.29-6.74s49.95,9.85,45.19,24.63l-2.26,3.88
				l-77.48-3.54c0,0-4.51-7.5-3.16-13.76S461.95,632.86,467.42,628.31z"/>
			<g>
				<path class="st7" d="M505.01,640.18c1.1,0.62,2.45-3.98,3.13-6.68c-0.79-0.21-1.54-0.4-2.26-0.58
					C505.03,635.65,504.01,639.62,505.01,640.18z"/>
				<path class="st7" d="M511.81,641.32c1.01,0.57,2.22-3.24,2.95-5.96c-0.77-0.23-1.53-0.45-2.27-0.67
					C511.69,637.36,510.88,640.8,511.81,641.32z"/>
				<path class="st7" d="M517.24,642.45c0.94,0.53,2.06-2.75,2.79-5.4c-0.76-0.26-1.51-0.51-2.26-0.75
					C517.03,638.89,516.36,641.96,517.24,642.45z"/>
			</g>
			<path class="st2" d="M464.14,650.06c0,0-6.5,3.17-2.96,8.36c1.69,2.38,2.58,2.92,8.68,3.81c6.1,0.89,68.54,2.53,70.71,2.58
				s6.29-4.75,0.92-8.85C536.12,651.86,464.14,650.06,464.14,650.06z"/>
		</g>
	</g>
</g>
<g id="rechter-been-onder">
	<path class="st8" d="M473.19,619.43c0,0,11.34-146.92,27.27-148.38c15.93-1.46,37.17,11.47,24.39,53.18
		c-12.78,41.71-27.03,100.97-27.03,100.97L473.19,619.43z"/>
</g>
<g id="rechter-been-boven">
	<path class="st8" d="M346.21,410.21c0,0,163.65,128.81,179.48,104.44c19.02-27.99-9.94-54.98-91.71-94.12l-56.69-30.68
		L346.21,410.21z"/>
	<path class="st9" d="M427.71,394.37l-74.31-26.54c0,0-62.25,71.41,16.41,97.47c10.62,4.34,18.34,10.13,22.68,5.79
		S429.64,423.8,427.71,394.37z"/>
</g>
<g id="heupen">
</g>
<g id="pedaal-rechts">
	<path class="st0" d="M533.03,661.01l-83.69,27.6c-5.71,2.18-8.97,7.66-7.24,12.17v0c1.73,4.51,7.81,6.42,13.52,4.23l75.62-28.92
		c5.71-2.18,9.76-4.93,8.04-9.44l-0.79-2.73C536.74,659.4,538.74,658.83,533.03,661.01z"/>
	<path class="st0" d="M563.61,661.12L563.61,661.12c0.44,3.65-2.19,6.99-5.84,7.43l-47.41,5.68c-3.65,0.44-6.99-2.19-7.43-5.84v0
		c-0.44-3.65,2.19-6.99,5.84-7.43l47.41-5.68C559.83,654.85,563.17,657.47,563.61,661.12z"/>
</g>
<g id="fiets">
	<path class="st6" d="M681.51,458.02l-12.31,14.83c0,0-15.95,10.36-7.56,12.87s25.47-1.4,27.99-5.32
		c2.52-3.92,16.23-20.99,10.08-25.47C693.54,450.47,681.51,458.02,681.51,458.02z"/>
	<circle class="st10" cx="270.54" cy="681.95" r="105.8"/>
	<g>
		<line class="st11" x1="273.38" y1="571.85" x2="273.38" y2="793.22"/>
		<line class="st11" x1="167.64" y1="649.83" x2="379.12" y2="715.25"/>
		<line class="st11" x1="210.88" y1="773.89" x2="335.88" y2="591.19"/>
		<line class="st11" x1="342.19" y1="769.24" x2="204.58" y2="595.84"/>
		<line class="st11" x1="376.55" y1="642.43" x2="170.22" y2="722.65"/>
		<line class="st11" x1="185.51" y1="615.24" x2="361.26" y2="749.84"/>
		<line class="st11" x1="307.12" y1="577.12" x2="239.65" y2="787.96"/>
		<line class="st11" x1="363.17" y1="617.81" x2="183.59" y2="747.26"/>
		<line class="st11" x1="237.73" y1="577.75" x2="309.03" y2="787.33"/>
		<line class="st11" x1="162.7" y1="682.54" x2="384.07" y2="682.54"/>
	</g>
	<circle class="st0" cx="272.1" cy="681.92" r="20.69"/>
	<circle class="st12" cx="270.54" cy="681.95" r="112.92"/>
	<circle class="st10" cx="702.92" cy="681.95" r="105.8"/>
	<g>
		<line class="st11" x1="705.77" y1="571.85" x2="705.77" y2="793.22"/>
		<line class="st11" x1="600.03" y1="649.83" x2="811.51" y2="715.25"/>
		<line class="st11" x1="643.27" y1="773.89" x2="768.27" y2="591.19"/>
		<line class="st11" x1="774.57" y1="769.24" x2="636.96" y2="595.84"/>
		<line class="st11" x1="808.93" y1="642.43" x2="602.6" y2="722.65"/>
		<line class="st11" x1="617.89" y1="615.24" x2="793.64" y2="749.84"/>
		<line class="st11" x1="739.5" y1="577.12" x2="672.03" y2="787.96"/>
		<line class="st11" x1="795.56" y1="617.81" x2="615.98" y2="747.26"/>
		<line class="st11" x1="670.12" y1="577.75" x2="741.42" y2="787.33"/>
		<line class="st11" x1="595.08" y1="682.54" x2="816.45" y2="682.54"/>
	</g>
	<circle class="st12" cx="702.92" cy="681.95" r="112.92"/>
	<circle class="st0" cx="704.48" cy="681.92" r="20.69"/>
	<g>
		<path class="st13" d="M631.97,529.59c0,0,1.9-42.34,8.85-48.02s29.07-22.75,29.07-22.75l-33.49-1.26c0,0-30.74,44.12-47.17,49.18
			c-16.43,5.05-210.64,17.8-210.64,17.8l-20.22-49.92c0,0,22.75,3.16,27.17,2.53c4.42-0.63,37.28-12.01,10.11-20.85
			s-78.35-32.23-78.98-25.27c-0.58,6.42,21.57,44.69,22.24,44.64c3.35-0.25,6.04,3.33,6.04,3.33s23.48,65.06,29.64,79.68
			c6.16,14.62-0.72,17.27-0.72,17.27l-96.85,86.93l9.6,8.53l95.42-91.16l34.12,95.42l9.06,30.39l-146.07-25.59l0.53,11.2
			l147.67,29.85c0,0,23.46-6.93,49.58-13.86s123.15-134.87,131.09-142.42c7.94-7.54,13.22-4.06,13.22-4.06l72.93,120.12
			c1.48,2.44,3.59,4.44,6.1,5.79l0.15,0.08c2.67,1.44,5.94-0.38,6.12-3.41l0,0L631.97,529.59z M597.88,537.47
			c-11.18,15.51-133.48,159.46-133.48,159.46l-22.12-16l-16.49-18.27c0,0-45.82-125.19-42.93-126.99l197.7-11.18
			C580.56,524.48,609.06,521.95,597.88,537.47z"/>
	</g>
	<path class="st6" d="M277.09,662.87c0,0-9.37,4-12.23,14.22c-1.08,3.86,5.04,13.7,14.82,14.58c9.77,0.88,4.15-5.92,4.15-5.92
		l-4.69-5.28c0,0-1.26-1.38-1.35-2.95c-0.09-1.54,0.92-3.25,8.81-6.11"/>
	<circle class="st4" cx="447.81" cy="698.45" r="41.72"/>
	<circle class="st13" cx="447.81" cy="698.45" r="24.3"/>
</g>
<g id="pedaal-links">
	<path class="st0" d="M354.3,730.84l94.52-21.7c6.49-1.78,10.75-7.05,9.47-11.71v0c-1.28-4.66-7.64-7.01-14.12-5.23l-85.92,23.61
		c-6.49,1.78-11.25,4.25-9.97,8.91l0.5,2.8C350.05,732.19,347.81,732.62,354.3,730.84z"/>
	<path class="st0" d="M366.62,756.65L366.62,756.65c-2.7,2.49-6.95,2.31-9.44-0.39l-32.33-35.13c-2.49-2.7-2.31-6.95,0.39-9.44l0,0
		c2.7-2.49,6.95-2.31,9.44,0.39l32.33,35.13C369.5,749.92,369.33,754.17,366.62,756.65z"/>
</g>
<g id="linker-voet">
	<g>
		<polyline class="st0" points="372.56,643.44 346.68,683.2 365.43,715.83 392.06,652.44 372.93,641.94 		"/>
		<path class="st6" d="M353.17,670.76c0,0-2.44,26.81,9.51,28.52c11.94,1.71,14.38,2.92,14.38,2.92s33.88,55.57,15.84,63.85
			l-5.61,1.22l-63.61-76.04c0,0,3.17-10.72,10.24-14.87C340.98,672.22,344.15,669.54,353.17,670.76z"/>
		<path class="st7" d="M374.46,716.42c0.37,1.57,5.86-1.13,9-2.82c-0.48-0.92-0.96-1.8-1.41-2.63
			C378.75,712.53,374.12,714.99,374.46,716.42z"/>
		<path class="st7" d="M379.25,723.81c0.34,1.44,4.98-0.71,8.16-2.38c-0.45-0.92-0.89-1.83-1.33-2.71
			C382.88,720.28,378.94,722.49,379.25,723.81z"/>
		<path class="st7" d="M382.88,729.91c0.32,1.34,4.37-0.44,7.5-2.04c-0.41-0.93-0.83-1.86-1.25-2.77
			C386.06,726.63,382.59,728.66,382.88,729.91z"/>
		<path class="st2" d="M329.84,686.46c0,0-8.6-3.39-10.43,4.43c-0.78,3.65-0.52,4.95,3.91,11.47c4.43,6.52,56.84,66.75,58.67,68.84
			c1.83,2.09,9.91,1.83,9.13-6.78C390.34,755.82,329.84,686.46,329.84,686.46z"/>
	</g>
</g>
<g id="linker-been-onder">
	<path class="st9" d="M367.11,647.06c0,0,69.38-130,84.56-124.94c15.18,5.06,29.43,25.43,0.98,58.5
		c-28.46,33.07-65.3,81.62-65.3,81.62L367.11,647.06z"/>
</g>
<g id="linker-been-boven">
	<path class="st9" d="M348.6,393.16c0,0,79.76,192.38,105.48,178.87c30.28-15.11,18.22-52.81-33.97-126.95l-34.45-54.49
		L348.6,393.16z"/>
</g>
<g id="gezicht">
	<circle class="st0" cx="527.51" cy="172.48" r="41.19"/>
	<path class="st6" d="M492.79,126.54c2.85,20.54,21.81,34.89,42.35,32.04c20.54-2.85,68.86-12.52,66.02-33.06
		s-55.78-44.17-76.32-41.32C504.29,87.04,489.94,105.99,492.79,126.54z"/>
	<circle class="st6" cx="498.07" cy="134.23" r="30.04"/>
	<path class="st6" d="M499.25,161.02c1.45,10.5-5.5,30.28-16,31.74c-10.5,1.45-20.57-15.97-22.02-26.47
		c-1.45-10.5,5.88-20.19,16.38-21.64C488.11,143.19,497.8,150.52,499.25,161.02z"/>
	<circle class="st0" cx="495.26" cy="168.81" r="11.31"/>
	<rect x="505.48" y="154.72" class="st6" width="7.21" height="26.25"/>
	<circle class="st6" cx="556.85" cy="164.79" r="2.71"/>
</g>
</svg>
